<?xml version="1.0" encoding="UTF-8"?>
<svg width="32px" height="32px" viewBox="0 0 32 32" version="1.1" xmlns="http://www.w3.org/2000/svg" xmlns:xlink="http://www.w3.org/1999/xlink">
    <!-- Generator: Sketch 64 (93537) - https://sketch.com -->
    <title>User Interface_Upd Copy@3x</title>
    <desc>Created with Sketch.</desc>
    <defs>
        <linearGradient x1="86.78333%" y1="76.0766107%" x2="6.61772951%" y2="4.08898977%" id="linearGradient-1">
            <stop stop-color="#4A7BF1" offset="0%"></stop>
            <stop stop-color="#1B50CE" offset="100%"></stop>
        </linearGradient>
        <linearGradient x1="35.1947673%" y1="87.1113349%" x2="99.9750051%" y2="19.8103514%" id="linearGradient-2">
            <stop stop-color="#4A7BF1" offset="0%"></stop>
            <stop stop-color="#1B50CE" offset="100%"></stop>
        </linearGradient>
        <linearGradient x1="-17.8153842%" y1="50%" x2="100%" y2="50%" id="linearGradient-3">
            <stop stop-color="#5CE6FF" offset="0%"></stop>
            <stop stop-color="#2FC8FF" offset="100%"></stop>
        </linearGradient>
    </defs>
    <g id="User-Interface_Upd-Copy" stroke="none" stroke-width="1" fill="none" fill-rule="evenodd">
        <path d="M2.66666667,32 L32,2.66666667 L32,32 L2.66666667,32 Z M18,26 L26,26 L26,18 L18,26 Z" id="Combined-Shape" fill="url(#linearGradient-1)"></path>
        <polygon id="Rectangle-25" fill="url(#linearGradient-2)" points="14.4656565 2.66666667 19.1797017 7.38071187 6.01387685 20.5465368 0.359375549 21.4916988 1.29983165 15.8324916"></polygon>
        <path d="M19.2132034,0.747546896 L21.0988215,2.63316498 C21.8798701,3.41421356 21.8798701,4.68054352 21.0988215,5.4615921 L18.7417989,7.81861471 L14.0277537,3.1045695 L16.3847763,0.747546896 C17.1658249,-0.0335016878 18.4321549,-0.0335016878 19.2132034,0.747546896 Z" id="Rectangle-25" fill="url(#linearGradient-3)"></path>
    </g>
</svg>