<?xml version="1.0" encoding="UTF-8"?>
<svg width="32px" height="32px" viewBox="0 0 32 32" version="1.1" xmlns="http://www.w3.org/2000/svg" xmlns:xlink="http://www.w3.org/1999/xlink">
    <!-- Generator: Sketch 64 (93537) - https://sketch.com -->
    <title>Interactions_Upd Copy@3x</title>
    <desc>Created with Sketch.</desc>
    <defs>
        <linearGradient x1="10.7067193%" y1="55.2370834%" x2="82.6943402%" y2="41.3194444%" id="linearGradient-1">
            <stop stop-color="#4A7BF1" offset="0%"></stop>
            <stop stop-color="#1B50CE" offset="100%"></stop>
        </linearGradient>
        <linearGradient x1="-17.8153842%" y1="50%" x2="100%" y2="50%" id="linearGradient-2">
            <stop stop-color="#5CE6FF" offset="0%"></stop>
            <stop stop-color="#2FC8FF" offset="100%"></stop>
        </linearGradient>
        <linearGradient x1="-17.8153842%" y1="50%" x2="100%" y2="50%" id="linearGradient-3">
            <stop stop-color="#5CE6FF" offset="0%"></stop>
            <stop stop-color="#37CDFF" offset="81.6302522%"></stop>
            <stop stop-color="#34CBFF" offset="88.9931251%"></stop>
            <stop stop-color="#2FC8FF" offset="100%"></stop>
        </linearGradient>
        <linearGradient x1="10.7067193%" y1="80.1656005%" x2="82.6943402%" y2="0%" id="linearGradient-4">
            <stop stop-color="#4A7BF1" offset="0%"></stop>
            <stop stop-color="#1B50CE" offset="100%"></stop>
        </linearGradient>
    </defs>
    <g id="Interactions_Upd-Copy" stroke="none" stroke-width="1" fill="none" fill-rule="evenodd">
        <path d="M0,25.3333333 C0,21.651435 2.98174661,18.6666667 6.66929692,18.6666667 L25.3307031,18.6666667 C29.0140541,18.6666667 32,21.6506255 32,25.3333333 C32,29.0152317 29.0182534,32 25.3307031,32 L6.66929692,32 C2.98594594,32 0,29.0160412 0,25.3333333 Z" id="Rectangle-2" fill="url(#linearGradient-1)"></path>
        <rect id="Mask" fill="url(#linearGradient-2)" x="2.66666667" y="21.3333333" width="8" height="8" rx="4"></rect>
        <path d="M0,6.66666667 C0,2.98476833 2.98174661,0 6.66929692,0 L25.3307031,0 C29.0140541,0 32,2.98395879 32,6.66666667 C32,10.348565 29.0182534,13.3333333 25.3307031,13.3333333 L6.66929692,13.3333333 C2.98594594,13.3333333 0,10.3493745 0,6.66666667 Z" id="Rectangle-2-Copy" fill="url(#linearGradient-3)"></path>
        <rect id="Mask-Copy" fill="url(#linearGradient-4)" x="21.3333333" y="2.66666667" width="8" height="8" rx="4"></rect>
    </g>
</svg>