<?xml version="1.0" encoding="UTF-8"?>
<svg width="32px" height="32px" viewBox="0 0 32 32" version="1.1" xmlns="http://www.w3.org/2000/svg" xmlns:xlink="http://www.w3.org/1999/xlink">
    <!-- Generator: Sketch 64 (93537) - https://sketch.com -->
    <title>Tech/ 32x32 / Sinatra</title>
    <desc>Created with Sketch.</desc>
    <defs>
        <linearGradient x1="-17.8153842%" y1="50%" x2="100%" y2="50%" id="linearGradient-1">
            <stop stop-color="#5CE6FF" offset="0%"></stop>
            <stop stop-color="#2FC8FF" offset="100%"></stop>
        </linearGradient>
        <linearGradient x1="10.7067193%" y1="62.3558299%" x2="82.6943402%" y2="29.52%" id="linearGradient-2">
            <stop stop-color="#4A7BF1" offset="0%"></stop>
            <stop stop-color="#1B50CE" offset="100%"></stop>
        </linearGradient>
    </defs>
    <g id="Tech/-32x32-/-Sinatra" stroke="none" stroke-width="1" fill="none" fill-rule="evenodd">
        <path d="M5.05533609,16.64 L5.94565043,16.5858838 L26.0645737,16.5858838 L26.9465316,16.64 C27.1097286,20.9066667 23.553783,23.04 16.2786949,23.04 C9.00360683,23.04 5.26248722,20.9066667 5.05533609,16.64 Z" id="Path" fill="url(#linearGradient-1)"></path>
        <path d="M9.97673732,6.4 C12.9569399,6.4 13.7544435,7.35141156 16.0000001,7.35141146 C18.2455566,7.35141135 19.0430601,6.4 22.0232626,6.4 C23.8182447,6.4 25.981824,16.1889672 26.06953,16.5891804 C26.0571862,16.6017955 23.287204,19.6852569 16.0000001,19.6852569 C8.71279613,19.6852569 5.94281395,16.6017955 5.94281395,16.6017955 C6.01817656,16.1889645 8.18175558,6.4 9.97673732,6.4 Z M5.05454871,16.6276887 C3.50329684,16.7124782 0.40046655,17.0722074 0.0976883439,18.5911902 C-1.06173624,24.4078108 8.33053637,26.88 16,26.88 C23.6694637,26.88 33.0617362,24.4078107 31.9023117,18.5911902 C31.5995334,17.0722074 28.4967033,16.7124783 26.9454515,16.6276887 C26.523969,18.6325662 24.612015,22.7982028 16,22.7982028 C7.38798513,22.7982028 5.47603117,18.6325662 5.05454871,16.6276887 Z" id="Shape" fill="url(#linearGradient-2)" fill-rule="nonzero"></path>
    </g>
</svg>