<?xml version="1.0" encoding="UTF-8"?>
<svg width="32px" height="32px" viewBox="0 0 32 32" version="1.1" xmlns="http://www.w3.org/2000/svg" xmlns:xlink="http://www.w3.org/1999/xlink">
    <!-- Generator: Sketch 64 (93537) - https://sketch.com -->
    <title>Tech/ 32x32/Python</title>
    <desc>Created with Sketch.</desc>
    <defs>
        <linearGradient x1="10.8997201%" y1="80.1656005%" x2="82.533752%" y2="0%" id="linearGradient-1">
            <stop stop-color="#4A7BF1" offset="0%"></stop>
            <stop stop-color="#1B50CE" offset="100%"></stop>
        </linearGradient>
        <linearGradient x1="-17.8153842%" y1="50%" x2="100%" y2="50%" id="linearGradient-2">
            <stop stop-color="#5CE6FF" offset="0%"></stop>
            <stop stop-color="#2FC8FF" offset="100%"></stop>
        </linearGradient>
    </defs>
    <g id="Tech/-32x32/Python" stroke="none" stroke-width="1" fill="none" fill-rule="evenodd">
        <path d="M17.2522988,1.64252124e-07 C20.7869212,1.64252124e-07 23.6522988,2.86537777 23.6522988,6.40000016 L23.6522988,11.8260871 C23.6522988,14.1312756 21.7835743,16.0000002 19.4783857,16.0000002 L12.521864,16.0000002 C10.2166755,16.0000002 8.34795097,17.8687247 8.34795097,20.1739132 L8.34795097,23.7104764 L6.40012488,23.7104764 C2.86550248,23.7104764 0.000124880422,20.8450988 0.000124880422,17.3104764 L0.000124880422,14.72 C0.000124880422,11.1853776 2.86550248,8.32 6.40012488,8.32 L15.1912276,8.32 L9.36558901,7.23477668 C8.75949365,7.1218708 8.32,6.59294595 8.32,5.97642399 L8.32,5.12370539 C8.32,2.29600747 10.640253,1.64252124e-07 13.467951,1.64252124e-07 L17.2522988,1.64252124e-07 Z M11.84,3.2 C11.3098066,3.2 10.88,3.62980664 10.88,4.16 C10.88,4.69019336 11.3098066,5.12 11.84,5.12 C12.3701934,5.12 12.8,4.69019336 12.8,4.16 C12.8,3.62980664 12.3701934,3.2 11.84,3.2 Z" id="Combined-Shape" fill="url(#linearGradient-1)"></path>
        <path d="M25.5721739,8.32 C29.1067963,8.32 31.9721739,11.1853776 31.9721739,14.72 L31.9721739,17.3104764 C31.9721739,20.8450988 29.1067963,23.7104764 25.5721739,23.7104764 L16.7810712,23.7104764 L22.6067098,24.7956997 C23.2128051,24.9086056 23.6522988,25.4375304 23.6522988,26.0540524 L23.6522988,26.906771 C23.6522988,29.7344689 21.3320457,32.0304762 18.5043478,32.0304762 L14.72,32.0304762 C11.1853776,32.0304762 8.32,29.1650986 8.32,25.6304762 L8.32,20.2043892 C8.32,17.8992007 10.1887245,16.0304762 12.493913,16.0304762 L19.4504348,16.0304762 C21.7556233,16.0304762 23.6243478,14.1617517 23.6243478,11.8565631 L23.6243478,8.32 L25.5721739,8.32 Z M20.16,26.88 C19.6298066,26.88 19.2,27.3098066 19.2,27.84 C19.2,28.3701934 19.6298066,28.8 20.16,28.8 C20.6901934,28.8 21.12,28.3701934 21.12,27.84 C21.12,27.3098066 20.6901934,26.88 20.16,26.88 Z" id="Combined-Shape" fill="url(#linearGradient-2)"></path>
    </g>
</svg>