<?xml version="1.0" encoding="UTF-8"?>
<svg width="32px" height="32px" viewBox="0 0 32 32" version="1.1" xmlns="http://www.w3.org/2000/svg" xmlns:xlink="http://www.w3.org/1999/xlink">
    <!-- Generator: Sketch 64 (93537) - https://sketch.com -->
    <title>Tech Icons / 32x32 / AI@3x</title>
    <desc>Created with Sketch.</desc>
    <defs>
        <linearGradient x1="21.2708905%" y1="80.1656005%" x2="73.9043231%" y2="0%" id="linearGradient-1">
            <stop stop-color="#4A7BF1" offset="0%"></stop>
            <stop stop-color="#1B50CE" offset="100%"></stop>
        </linearGradient>
        <linearGradient x1="-17.8153842%" y1="50%" x2="100%" y2="50%" id="linearGradient-2">
            <stop stop-color="#5CE6FF" offset="0%"></stop>
            <stop stop-color="#2FC8FF" offset="100%"></stop>
        </linearGradient>
    </defs>
    <g id="Tech-Icons-/-32x32-/-AI" stroke="none" stroke-width="1" fill="none" fill-rule="evenodd">
        <path d="M29.58304,18.368384 C29.128,17.652864 28.57504,16.645504 28.02272,15.604864 C27.5024,14.596864 27.07936,12.873984 27.07936,11.768704 L27.04736,11.443584 C26.59168,4.745984 20.8048,-0.455936 13.912,0.031744 C7.70272,0.454144 2.728,5.688704 2.56544,11.931264 C2.46816,15.117184 3.63872,18.043264 5.5568,20.286464 L5.5568,25.813504 C5.5568,26.333824 5.88192,26.788864 6.3696,26.951424 L20.51232,31.763584 C21.03264,31.926144 21.58496,31.535744 21.58496,30.982784 L21.58496,28.024704 L24.93408,28.024704 C26.104,28.024704 27.07936,27.081344 27.07936,25.878784 L27.07936,19.993984 L28.67296,19.993984 C29.51776,19.993984 30.03808,19.051264 29.58304,18.368384" id="Fill-1" fill="url(#linearGradient-1)"></path>
        <path d="M5.471232,11.373312 C5.471232,5.853312 10.065152,3.172992 15.524992,3.172992 C20.984832,3.172992 23.752832,6.933632 23.752832,8.813312 C23.752832,8.813312 25.248512,13.573632 17.619072,13.573632 C17.619072,13.573632 10.887552,13.333632 10.887552,15.812992 L10.887552,19.573632 L8.943232,19.573632 C8.943232,19.573632 8.979072,17.436672 8.269952,15.972992 C7.731072,14.861952 5.471232,14.653312 5.471232,11.373312" id="Fill-4" fill="url(#linearGradient-2)"></path>
    </g>
</svg>