<?xml version="1.0" encoding="UTF-8"?>
<svg width="32px" height="32px" viewBox="0 0 32 32" version="1.1" xmlns="http://www.w3.org/2000/svg" xmlns:xlink="http://www.w3.org/1999/xlink">
    <!-- Generator: Sketch 64 (93537) - https://sketch.com -->
    <title>Tech Icons / 32x32 / React</title>
    <desc>Created with Sketch.</desc>
    <defs>
        <linearGradient x1="-16.831404%" y1="37.8025234%" x2="100%" y2="37.8025224%" id="linearGradient-1">
            <stop stop-color="#428EEA" offset="0%"></stop>
            <stop stop-color="#1F55D0" offset="100%"></stop>
        </linearGradient>
    </defs>
    <g id="Tech-Icons-/-32x32-/-React" stroke="none" stroke-width="1" fill="none" fill-rule="evenodd">
        <path d="M6.549248,14.463104 C4.652288,12.244864 4.192128,10.539904 4.636288,9.767424 C5.082368,8.991104 6.795648,8.530304 9.682048,9.061504 C9.450368,10.098944 9.275008,11.198464 9.148928,12.342144 C9.149568,12.341504 9.150848,12.340864 9.151488,12.340864 C9.308288,12.225664 9.458688,12.109184 9.619328,11.995904 C10.408448,11.438464 11.212928,10.925184 12.016768,10.446464 C12.770048,6.507264 14.199808,3.953024 15.436288,3.343744 C15.461248,3.331584 15.486208,3.320704 15.510528,3.310464 C15.567488,3.285504 15.623808,3.266304 15.679488,3.250304 C15.705728,3.242624 15.731968,3.233664 15.757568,3.228544 C15.835008,3.211264 15.911808,3.199744 15.987328,3.199744 C16.089728,3.199744 16.197888,3.220864 16.309248,3.254144 C16.325248,3.259264 16.340608,3.261824 16.356608,3.267584 C16.462848,3.303424 16.572288,3.357184 16.684288,3.423744 C16.706048,3.436544 16.727808,3.449984 16.749568,3.464064 C16.861568,3.535744 16.975488,3.622144 17.091328,3.725184 C17.111808,3.743744 17.132288,3.764224 17.152768,3.783424 C17.273088,3.896064 17.394048,4.020864 17.516288,4.166784 C17.525248,4.177664 17.534208,4.190464 17.542528,4.201344 C17.659648,4.343424 17.776768,4.504064 17.893248,4.678144 C17.913728,4.708224 17.933568,4.735744 17.953408,4.766464 C18.069888,4.945024 18.185088,5.143424 18.299648,5.353984 C18.325888,5.401984 18.351488,5.449344 18.377088,5.498624 C18.489728,5.714304 18.601088,5.945344 18.709888,6.193024 C18.733568,6.247424 18.757248,6.304384 18.780928,6.359424 C18.891648,6.621824 19.001728,6.897024 19.107328,7.193984 C19.110528,7.203584 19.113728,7.214464 19.116928,7.224064 C19.117568,7.224064 19.118208,7.223424 19.118848,7.223424 C19.556608,7.087104 19.991168,6.961664 20.418048,6.852864 C20.824448,6.749824 21.218048,6.665984 21.604608,6.590464 C21.593728,6.559744 21.582848,6.531584 21.571968,6.500864 C21.505408,6.309504 21.437568,6.120704 21.367808,5.937664 C21.351808,5.897344 21.336448,5.858304 21.320448,5.818624 C21.246208,5.627904 21.170688,5.441024 21.091968,5.259904 C21.082368,5.237504 21.071488,5.215744 21.061888,5.193344 C20.629248,4.208384 20.139648,3.371904 19.603968,2.694144 C19.572608,2.654464 19.541888,2.612864 19.510528,2.573824 C19.433088,2.480384 19.354368,2.392704 19.275648,2.305024 C19.229568,2.254464 19.183488,2.201984 19.136768,2.153344 C19.064448,2.077184 18.990208,2.006144 18.915968,1.935744 C18.860928,1.883264 18.805248,1.830784 18.749568,1.781504 C18.679168,1.719424 18.607488,1.660544 18.535808,1.603584 C18.473728,1.554304 18.411648,1.505664 18.348288,1.460224 C18.279808,1.410304 18.210688,1.362304 18.140928,1.316864 C18.072448,1.272064 18.003328,1.229824 17.933568,1.189504 C17.867008,1.150464 17.800448,1.112704 17.732608,1.078144 C17.657728,1.039104 17.580928,1.004544 17.504768,0.971264 C17.440768,0.943104 17.376768,0.913664 17.312128,0.889344 C17.228928,0.857344 17.145088,0.831744 17.060608,0.806144 C17.000448,0.788224 16.940928,0.767744 16.880128,0.752384 C16.784128,0.728064 16.686848,0.712064 16.590208,0.696064 C16.539008,0.687104 16.489088,0.674944 16.437888,0.669184 C16.288768,0.650624 16.139008,0.639744 15.987328,0.639744 C15.786368,0.639744 15.587968,0.662144 15.392128,0.694144 C15.319168,0.705664 15.247488,0.721024 15.175808,0.736384 C15.061248,0.762624 14.948608,0.795264 14.835968,0.832384 C14.620928,0.900864 14.411648,0.987904 14.207488,1.093504 C14.190848,1.102464 14.173568,1.108864 14.156928,1.117824 C14.021888,1.190784 13.890048,1.273984 13.759488,1.362304 C13.740288,1.375104 13.721728,1.387904 13.702528,1.401344 C13.302528,1.679744 12.926208,2.029184 12.574208,2.441984 C12.547968,2.472704 12.521088,2.502144 12.494848,2.534144 C12.398208,2.651264 12.303488,2.772224 12.210688,2.898944 C12.138368,2.996224 12.067968,3.098624 11.998208,3.201664 C11.939968,3.288064 11.879808,3.370624 11.823488,3.460864 C11.274368,4.322304 10.786688,5.373824 10.371328,6.590464 C6.434688,5.822464 3.566208,6.491904 2.416768,8.491264 C1.271808,10.482944 2.128768,13.288064 4.752128,16.292864 C5.011328,15.995904 5.281408,15.697664 5.575168,15.397504 C5.883008,15.083264 6.210688,14.772224 6.549248,14.463104" id="Fill-1" fill="#2DC7FF"></path>
        <path d="M4.636224,22.818112 C4.131904,21.940672 4.792384,19.859392 7.404864,17.187392 C7.872704,16.709952 8.386624,16.236992 8.932544,15.769792 C9.601344,15.197632 10.320704,14.634432 11.095744,14.086592 C11.257664,13.972672 11.422144,13.868352 11.585344,13.757632 C12.300864,13.270592 13.023424,12.805952 13.744064,12.391872 C14.457664,11.981632 15.214144,11.594432 15.987264,11.224512 C16.165824,11.138752 16.339264,11.048512 16.519744,10.965312 C17.387584,10.568512 18.239424,10.228032 19.073344,9.936832 C19.745344,9.702592 20.406464,9.497152 21.048384,9.334592 C24.689984,8.409792 26.831424,8.885312 27.338304,9.767232 C27.781824,10.539072 27.322944,12.243392 25.427264,14.460352 C25.765184,14.770752 26.090944,15.082432 26.398784,15.397312 C26.692544,15.697472 26.962624,15.995712 27.221824,16.292672 C29.845824,13.288512 30.702784,10.483392 29.557184,8.491072 C28.408384,6.492352 25.539904,5.824192 21.604544,6.590272 C21.217984,6.665792 20.825024,6.749632 20.417984,6.853312 C19.991104,6.961472 19.557184,7.086912 19.118784,7.223872 L19.117504,7.223872 C17.927104,7.595712 16.700864,8.067392 15.454144,8.638272 C14.419264,9.112512 13.415104,9.628352 12.468544,10.172352 C12.318144,10.258752 12.167744,10.357312 12.017344,10.446912 C11.213504,10.925632 10.409024,11.438912 9.619904,11.995712 C9.458624,12.108992 9.308224,12.226112 9.151424,12.340672 C9.150784,12.341312 9.150144,12.341952 9.149504,12.341952 C8.209984,13.029312 7.341504,13.739072 6.549184,14.462912 C6.211264,14.772032 5.882944,15.083072 5.575104,15.397312 C5.281984,15.697472 5.011264,15.995712 4.752064,16.292672 C2.128704,19.297472 1.271744,22.103232 2.416704,24.094272 C3.257024,25.555392 5.013184,26.308672 7.434944,26.308672 C8.330304,26.308672 9.317824,26.203712 10.382144,25.995712 C10.117184,25.216192 9.888064,24.386752 9.694784,23.521472 C6.800704,24.055872 5.082944,23.595072 4.636224,22.818112" id="Fill-4" fill="url(#linearGradient-1)"></path>
        <path d="M27.338112,22.818112 C26.891392,23.595072 25.173632,24.055872 22.279552,23.521472 C22.785792,21.254592 23.046912,18.749632 23.046912,16.292672 C23.046912,16.116032 23.037952,15.940672 23.035392,15.764672 C23.583872,16.233152 24.099712,16.708032 24.568832,17.187392 C27.181952,19.859392 27.842432,21.940672 27.338112,22.818112 M15.457152,23.947712 C16.698112,24.515392 17.916672,24.984512 19.098752,25.354432 C18.177792,27.922112 16.966272,29.385792 15.987072,29.385792 C14.653312,29.385792 12.884992,26.679872 12.016512,22.136512 C12.168192,22.226752 12.319872,22.325312 12.470912,22.412352 C13.415552,22.956352 14.419712,23.472192 15.456512,23.947712 M26.398592,15.397312 C26.090752,15.082432 25.764992,14.770752 25.427072,14.460352 C24.505472,13.614912 23.478272,12.788672 22.355072,11.996352 C21.423872,11.337792 20.465152,10.724672 19.505792,10.171712 C19.365632,10.091712 19.215872,10.016192 19.073152,9.936832 C18.239872,10.228032 17.387392,10.568512 16.520192,10.965312 C16.339072,11.048512 16.165632,11.138752 15.987072,11.224512 C16.760192,11.594432 17.516672,11.981632 18.229632,12.391232 C18.953472,12.807872 19.675392,13.271232 20.387072,13.756352 C20.449152,14.591552 20.486912,15.440192 20.486912,16.292672 C20.486912,18.800192 20.223872,21.022912 19.807232,22.892992 C18.745472,22.557632 17.646592,22.133952 16.522752,21.620032 L16.522752,21.620032 C15.557632,21.177792 14.623872,20.697792 13.747072,20.192832 C13.025792,19.778752 12.301952,19.314752 11.585152,18.825792 C11.524992,18.016832 11.487232,17.175232 11.487232,16.292672 C11.487232,15.408832 11.524992,14.567232 11.585152,13.757632 C11.422592,13.868352 11.257472,13.972672 11.096192,14.086592 C10.320512,14.634432 9.601152,15.197632 8.932992,15.769792 C8.930432,15.943872 8.927232,16.118592 8.927232,16.292672 C8.927232,18.749632 9.188352,21.254592 9.695232,23.521472 C9.888512,24.386752 10.117632,25.216192 10.381952,25.995712 C11.565312,29.479872 13.453312,31.945792 15.987072,31.945792 C18.521472,31.945792 20.408832,29.480512 21.592192,25.995712 C22.656512,26.203712 23.644032,26.308672 24.539392,26.308672 C26.961152,26.308672 28.717312,25.555392 29.557632,24.094272 C30.702592,22.102592 29.845632,19.297472 27.221632,16.292672 C26.962432,15.995712 26.692352,15.697472 26.398592,15.397312" id="Fill-7" fill="#2DC7FF"></path>
        <path d="M15.987136,18.313728 C17.047616,18.313728 17.907136,17.454208 17.907136,16.393728 C17.907136,15.333248 17.047616,14.473728 15.987136,14.473728 C14.926656,14.473728 14.067136,15.333248 14.067136,16.393728 C14.067136,17.454208 14.926656,18.313728 15.987136,18.313728" id="Fill-10" fill="#2154CF"></path>
    </g>
</svg>