<?xml version="1.0" encoding="UTF-8"?>
<svg width="32px" height="32px" viewBox="0 0 32 32" version="1.1" xmlns="http://www.w3.org/2000/svg" xmlns:xlink="http://www.w3.org/1999/xlink">
    <!-- Generator: Sketch 64 (93537) - https://sketch.com -->
    <title>Tech Icons / 32x32 / ruby_on_rails</title>
    <desc>Created with Sketch.</desc>
    <defs>
        <linearGradient x1="-16.831404%" y1="37.8025234%" x2="100%" y2="37.8025224%" id="linearGradient-1">
            <stop stop-color="#428EEA" offset="0%"></stop>
            <stop stop-color="#1F55D0" offset="100%"></stop>
        </linearGradient>
        <linearGradient x1="92.1801058%" y1="56.781393%" x2="61.6603934%" y2="86.2041683%" id="linearGradient-2">
            <stop stop-color="#5CE6FF" offset="0%"></stop>
            <stop stop-color="#2FC8FF" offset="100%"></stop>
        </linearGradient>
        <linearGradient x1="88.8453%" y1="17.6675817%" x2="57.1775782%" y2="62.6491486%" id="linearGradient-3">
            <stop stop-color="#5CE6FF" offset="0%"></stop>
            <stop stop-color="#2FAAFF" offset="100%"></stop>
        </linearGradient>
        <linearGradient x1="18.2996606%" y1="84.8404073%" x2="70.3850933%" y2="38.6546925%" id="linearGradient-4">
            <stop stop-color="#5CE6FF" offset="0%"></stop>
            <stop stop-color="#2FC8FF" offset="100%"></stop>
        </linearGradient>
    </defs>
    <g id="Tech-Icons-/-32x32-/-ruby_on_rails" stroke="none" stroke-width="1" fill="none" fill-rule="evenodd">
        <path d="M4.96937853,29.4868753 L3.18531236,31.710373 C3.03566356,31.8968075 2.84035919,32 2.63744556,32 L0.270965334,32 C0.024932556,32 -0.0932646343,31.5899818 0.0873284976,31.3629582 L9.56339508,19.4999471 C9.71202932,19.3135126 9.90733369,19.2096322 10.1102473,19.2089442 L12.5284705,19.2000009 C12.7750106,19.1993129 12.8937151,19.6107071 12.7121074,19.8370426 L10.6948275,22.3511967 L21.2985761,22.3511967 L19.287512,19.8370426 C19.1064735,19.6107071 19.2248059,19.1993129 19.471079,19.2000009 L21.8822283,19.2089442 C22.0840002,19.2096322 22.2776811,19.3128247 22.4263551,19.4985712 L31.9121646,31.3629582 C32.093203,31.5892938 31.9753763,32 31.729609,32 L29.3305963,32 C29.1283187,32 28.9336265,31.8968075 28.7849524,31.710373 L27.0063834,29.4868753 L4.96937853,29.4868753 L4.96937853,29.4868753 Z M7.03596423,26.9112709 L8.62824178,24.9268011 L23.3587941,24.9268011 L24.9461654,26.9112709 L7.03596423,26.9112709 L7.03596423,26.9112709 Z" id="Combined-Shape" fill="url(#linearGradient-1)"></path>
        <path d="M24.9381825,0.74803047 C24.5883507,0.398198633 23.5881744,0.0521284293 23.0381401,0.0295586334 C21.4402821,-0.0348070809 17.4516976,0.0253790416 16.9656111,0.0295586334 C16.9367719,0.0299765926 16.9070968,0.0337382252 16.8786756,0.0345741436 C14.4657972,0.0985218987 11.5003768,1.91580843 9.62165029,3.79369904 C8.76316212,4.65302312 7.83821845,5.64191455 7.11765682,6.78545088 C7.06875559,6.86486312 7.01901845,6.94385741 6.97262498,7.02243374 C6.92873927,7.09599455 6.88568947,7.17039129 6.84389355,7.24562394 C6.80000784,7.32336435 6.76030171,7.40110476 6.71892376,7.47884516 C6.30932376,8.26460843 6.00713927,9.11724516 5.89387233,10.0480403 C5.88425927,10.1266166 5.87088457,10.2887848 5.856256,10.5437399 C5.8132062,11.290215 5.76012539,12.8408435 5.76012539,15.4944664 C5.76012539,16.9080043 5.95280457,18.5430607 6.54797845,19.1386525 C7.42067722,20.0109333 8.74518988,20.3139537 10.3154625,20.1225284 L10.9900487,20.0824043 L10.9904666,20.0832403 L10.9904666,20.0824043 L25.0426723,19.2431423 L25.9279099,4.47664435 C26.1097221,2.92309006 25.803358,1.61362394 24.9381825,0.74803047" id="Fill-1" fill="url(#linearGradient-2)"></path>
        <path d="M24.9384751,0.748072266 C24.5886433,0.398240429 23.588049,0.0517522661 23.0384327,0.0296004293 C21.4401567,-0.034765285 17.4515722,0.0254208375 16.9654857,0.0296004293 C16.9366465,0.0300183885 16.9069714,0.0337800212 16.8785502,0.0346159395 C17.5201176,0.0688885926 18.0525976,0.270762878 18.4195657,0.664480429 C19.8364473,2.18376206 18.2874906,5.93076614 14.9601176,9.03369512 C11.6327445,12.1366241 7.78668408,13.4201768 6.36980245,11.9013131 C6.04672,11.554407 5.8849698,11.0875466 5.85654857,10.5437817 C5.81349878,11.2902568 5.76,12.8408853 5.76,15.4945082 C5.76,16.9080461 5.95267918,18.5431025 6.54827102,19.1382763 C7.42055184,20.0109751 8.74506449,20.3139955 10.3153371,20.1225702 C13.2101224,19.7698127 16.9433339,17.728918 20.2364343,14.4362355 C23.5433273,11.1289245 25.5884016,7.37690492 25.9277845,4.47668614 C26.1095967,2.92313186 25.8036506,1.61366574 24.9384751,0.748072266" id="Fill-3" fill="url(#linearGradient-3)"></path>
        <path d="M14.9601176,9.03377872 C18.2874906,5.93084974 19.8364473,2.18342769 18.4195657,0.664564021 C18.0525976,0.27084647 17.5201176,0.0689721844 16.8785502,0.0346995314 C14.4660898,0.0982293273 11.5002514,1.91593382 9.62194286,3.79382443 C8.76303673,4.65314851 7.83809306,5.64203994 7.11753143,6.78557627 C7.0686302,6.86498851 7.01889306,6.94356484 6.97249959,7.02255912 C6.92861388,7.09611994 6.88598204,7.17051667 6.84376816,7.24533137 C6.80030041,7.32348974 6.76017633,7.40123014 6.71879837,7.47855259 C6.30919837,8.26473382 6.00701388,9.11737055 5.8941649,10.0477477 C5.88413388,10.126742 5.87075918,10.2889101 5.85654857,10.5434473 C5.8849698,11.0876301 6.04672,11.5544906 6.36980245,11.9009787 C7.78668408,13.4202603 11.6327445,12.1367077 14.9601176,9.03377872" id="Fill-6" fill="url(#linearGradient-4)"></path>
    </g>
</svg>